<svg width="16" height="16" viewBox="0 0 16 16" fill="none" xmlns="http://www.w3.org/2000/svg">
<path d="M14.9689 14.5735L11.2218 10.6129C12.1853 9.44901 12.7131 7.98455 12.7131 6.45999C12.7131 2.89801 9.86153 0 6.35657 0C2.85161 0 0 2.89801 0 6.45999C0 10.022 2.85161 12.92 6.35657 12.92C7.67238 12.92 8.92628 12.5167 9.99833 11.751L13.7739 15.7416C13.9317 15.9082 14.1439 16 14.3714 16C14.5867 16 14.7909 15.9166 14.946 15.7649C15.2754 15.4428 15.2859 14.9085 14.9689 14.5735ZM6.35657 1.68522C8.94729 1.68522 11.0549 3.82713 11.0549 6.45999C11.0549 9.09286 8.94729 11.2348 6.35657 11.2348C3.76585 11.2348 1.65824 9.09286 1.65824 6.45999C1.65824 3.82713 3.76585 1.68522 6.35657 1.68522Z" fill="white"/>
</svg>
