<svg width="20" height="20" viewBox="0 0 20 20" fill="none" xmlns="http://www.w3.org/2000/svg">
<g clip-path="url(#clip0_2255_17564)">
<path d="M20.0009 10.2915C19.9362 10.3219 19.9423 10.3885 19.9281 10.4391C19.6957 11.31 18.8914 11.8799 17.978 11.8799C12.6592 11.8759 7.34046 11.8799 2.02168 11.8759C0.845566 11.8759 -0.0314674 10.9908 0.000865674 9.86112C0.0311779 8.81838 0.908211 8.00601 2.01966 8.00197C3.315 7.9959 4.61034 7.99995 5.90568 7.99995C9.90892 7.99995 13.9142 8.00197 17.9174 7.99792C18.6025 7.99792 19.1723 8.2283 19.6007 8.77796C19.7806 9.00833 19.8857 9.27104 19.9584 9.54991C19.9665 9.58022 19.9564 9.6166 19.9988 9.6267C20.0009 9.84899 20.0009 10.0693 20.0009 10.2915Z" fill="white"/>
</g>
<defs>
<clipPath id="clip0_2255_17564">
<rect width="20" height="3.87996" fill="white" transform="translate(0 8)"/>
</clipPath>
</defs>
</svg>
