<svg width="90" height="90" viewBox="0 0 90 90" fill="none" xmlns="http://www.w3.org/2000/svg">
<rect width="90" height="90" rx="20" fill="#00C7F4"/>
<path fill-rule="evenodd" clip-rule="evenodd" d="M43.0301 50.7928H58.6665C59.9586 50.7928 61.0294 51.8054 61.0294 53.1556V68.792C61.0294 70.0842 60.0167 71.1549 58.6665 71.1549H43.0301C41.7379 71.1549 40.6672 70.1423 40.6672 68.792V53.0431C40.6672 51.8054 41.6254 50.7928 43.0301 50.7928Z" fill="white"/>
<path fill-rule="evenodd" clip-rule="evenodd" d="M50.7359 40.5536L60.1838 28.0096C61.0259 26.9969 62.4341 26.7175 63.4468 27.5595L75.9908 37.0074C77.0034 37.8495 77.2829 39.2578 76.4408 40.2704L66.993 52.7019C66.1509 53.7145 64.7426 53.994 63.7299 53.152L51.186 43.7041C50.1733 42.9745 50.0063 41.5662 50.7359 40.5536Z" fill="white"/>
<path fill-rule="evenodd" clip-rule="evenodd" d="M24.3559 47.5296L38.3626 54.6183C39.5422 55.1808 39.9923 56.6436 39.3752 57.7107L32.2866 71.7174C31.724 72.897 30.2613 73.3471 29.1942 72.73L15.1875 65.6414C14.0078 65.0788 13.5578 63.6161 14.1748 62.549L21.2635 48.5423C21.826 47.359 23.1763 46.909 24.3559 47.5296Z" fill="white"/>
</svg>
