<svg width="80" height="80" viewBox="0 0 80 80" fill="none" xmlns="http://www.w3.org/2000/svg">
<rect width="80" height="80" rx="20" fill="#8161CC"/>
<path d="M50.1845 32.8129C49.4465 32.3639 48.4871 32.3639 47.6753 32.8129L41.9188 36.255L38.0073 38.4998L32.2509 41.9421C31.5129 42.391 30.5535 42.391 29.7417 41.9421L25.1661 39.2482C24.428 38.7993 23.9114 37.9761 23.9114 37.0781V31.7652C23.9114 30.8673 24.3542 30.0442 25.1661 29.5952L29.6679 26.9762C30.4059 26.5272 31.3653 26.5272 32.1771 26.9762L36.679 29.5952C37.4169 30.0442 37.9335 30.8673 37.9335 31.7652C37.9335 33.2809 39.5832 34.2291 40.8869 33.4559C41.4808 33.1037 41.845 32.4643 41.845 31.7738V29.4455C41.845 28.5476 41.4023 27.7245 40.5904 27.2755L32.2509 22.3367C31.5129 21.8878 30.5535 21.8878 29.7417 22.3367L21.2546 27.2755C20.4428 27.7245 20 28.5476 20 29.4455V39.3979C20 40.2958 20.4428 41.1189 21.2546 41.5679L29.7417 46.5066C30.4797 46.9557 31.4392 46.9557 32.2509 46.5066L38.0073 43.1393L41.9188 40.8196L47.6753 37.4523C48.4133 37.0033 49.3727 37.0033 50.1845 37.4523L54.6863 40.0714C55.4244 40.5203 55.941 41.3434 55.941 42.2414V47.5543C55.941 48.4522 55.4982 49.2753 54.6863 49.7243L50.1845 52.4182C49.4465 52.8672 48.4871 52.8672 47.6753 52.4182L43.1735 49.7992C42.4354 49.3502 41.9188 48.5271 41.9188 47.629C41.9188 46.1133 40.2691 45.1652 38.9655 45.9384C38.3715 46.2906 38.0073 46.93 38.0073 47.6205V49.9488C38.0073 50.8467 38.4502 51.6699 39.262 52.1188L47.7491 57.0576C48.4871 57.5066 49.4465 57.5066 50.2583 57.0576L58.7454 52.1188C59.4834 51.6699 60 50.8467 60 49.9488V39.9965C60 39.0986 59.5572 38.2754 58.7454 37.8265L50.1845 32.8129Z" fill="white"/>
</svg>
